<?xml version="1.0" encoding="utf-8"?>
<!-- Generator: Adobe Illustrator 17.1.0, SVG Export Plug-In . SVG Version: 6.00 Build 0)  -->
<!DOCTYPE svg PUBLIC "-//W3C//DTD SVG 1.1//EN" "http://www.w3.org/Graphics/SVG/1.1/DTD/svg11.dtd">
<svg version="1.1" id="Layer_1" xmlns="http://www.w3.org/2000/svg" xmlns:xlink="http://www.w3.org/1999/xlink" x="0px" y="0px"
	 viewBox="0 0 150 32" enable-background="new 0 0 150 32" xml:space="preserve">
<g>
	
		<linearGradient id="SVGID_1_" gradientUnits="userSpaceOnUse" x1="75" y1="2" x2="75" y2="34" gradientTransform="matrix(1 0 0 -1 0 34)">
		<stop  offset="0" style="stop-color:#483F84"/>
		<stop  offset="1" style="stop-color:#5C3D86"/>
	</linearGradient>
	<path fill="url(#SVGID_1_)" d="M150,28c0,2.2-1.8,4-4,4H4c-2.2,0-4-1.8-4-4V4c0-2.2,1.8-4,4-4h142c2.2,0,4,1.8,4,4V28z"/>
</g>
<g>
	<path fill="#FFFFFF" d="M9.4,9h3.4c3.7,0,6.1,1.7,6.1,5.9c0,4.2-2.5,6-6.1,6H9.4V9z M13,19c2.7,0,4-1.2,4-4.2c0-2.8-1.3-4-4-4h-1.5
		V19H13z"/>
	<path fill="#FFFFFF" d="M20.3,16.6c0-3.2,2.3-4.4,4-4.4c1.9,0,3.7,1.1,3.7,4.6v0.5h-5.8c0.1,1.5,1,2.2,2.3,2.2c1.1,0,1.7-0.4,2.4-1
		l1,1c-0.9,1-2,1.5-3.6,1.5C22.3,21,20.3,19.7,20.3,16.6z M26.3,15.8c-0.1-1.3-0.8-2-1.9-2c-1,0-1.8,0.5-2,2H26.3z"/>
	<path fill="#FFFFFF" d="M29.8,12.3h2v1.1c0.6-0.7,1.4-1.3,2.7-1.3c1.9,0,3.4,1.5,3.4,4.4S36.4,21,34.2,21c-0.9,0-1.8-0.4-2.4-1.1
		V24h-2C29.8,24,29.8,12.3,29.8,12.3z M35.9,16.6c0-1.8-0.8-2.7-2-2.7c-0.8,0-1.6,0.5-2.1,1.1v3.4c0.5,0.7,1.3,1.1,2,1.1
		C35.3,19.4,35.9,18.5,35.9,16.6z"/>
	<path fill="#FFFFFF" d="M39.7,9h2v11.8h-2V9z"/>
	<path fill="#FFFFFF" d="M43.5,16.6c0-3.1,2.1-4.4,4.1-4.4c2.1,0,4.1,1.3,4.1,4.4S49.6,21,47.6,21S43.5,19.7,43.5,16.6z M49.8,16.6
		c0-1.6-0.7-2.7-2.2-2.7c-1.4,0-2.2,1-2.2,2.7c0,1.6,0.7,2.8,2.2,2.8S49.8,18.3,49.8,16.6z"/>
	<path fill="#FFFFFF" d="M52.4,23.9l0.4-1.6c0.2,0.1,0.8,0.2,1.4,0.2c0.7,0,1.1-0.3,1.3-1l0.2-0.6l-3.3-8.5h2l2.2,6.2l0,0l2.2-6.2h2
		l-3.6,9.4c-0.6,1.5-1.3,2.4-3,2.4C53.4,24.1,52.8,24,52.4,23.9z"/>
	<path opacity="0.48" fill="#FFFFFF" enable-background="new    " d="M65.9,16.6c0-2.9,1.9-4.4,3.9-4.4c2.1,0,3.9,1.5,3.9,4.4
		S71.8,21,69.8,21S65.9,19.5,65.9,16.6z M72.4,16.6c0-1.8-0.8-3.2-2.5-3.2c-1.6,0-2.5,1.3-2.5,3.2c0,1.8,0.8,3.2,2.5,3.2
		C71.4,19.8,72.4,18.5,72.4,16.6z"/>
	<path opacity="0.48" fill="#FFFFFF" enable-background="new    " d="M75.7,12.4h1.4v1.3c0.7-0.7,1.8-1.4,3.2-1.4
		c1.6,0,2.5,0.9,2.5,2.5v6.1h-1.4V15c0-1.1-0.5-1.6-1.6-1.6c-1,0-1.9,0.5-2.7,1.4v6.1h-1.4V12.4z"/>
	<path opacity="0.48" fill="#FFFFFF" enable-background="new    " d="M89.1,9h1.4v5h6.1V9H98v11.8h-1.4v-5.6h-6.1v5.6h-1.4V9z"/>
	<path opacity="0.48" fill="#FFFFFF" enable-background="new    " d="M100.2,16.6c0-3.1,2-4.4,3.8-4.4c2,0,3.5,1.4,3.5,4.5V17h-6
		c0,1.9,1.2,2.9,2.5,2.9c1.2,0,1.9-0.5,2.5-1.4l0.8,0.7c-0.8,1.1-1.9,1.8-3.4,1.8C102,21,100.2,19.6,100.2,16.6z M106.2,15.9
		c-0.1-1.5-0.8-2.5-2.2-2.5c-1.1,0-2.2,0.8-2.4,2.5H106.2z"/>
	<path opacity="0.48" fill="#FFFFFF" enable-background="new    " d="M109.5,12.4h1.4V14l0,0c0.6-1,1.6-1.7,3.3-1.7h0.2l-0.1,1.3
		h-0.4c-1.3,0-2.4,0.7-3,1.9V21h-1.4V12.4z"/>
	<path opacity="0.48" fill="#FFFFFF" enable-background="new    " d="M115.4,16.6c0-2.9,1.9-4.4,3.9-4.4c2.1,0,3.9,1.5,3.9,4.4
		s-1.9,4.4-3.9,4.4S115.4,19.5,115.4,16.6z M121.9,16.6c0-1.8-0.8-3.2-2.5-3.2c-1.6,0-2.5,1.3-2.5,3.2c0,1.8,0.8,3.2,2.5,3.2
		C121,19.8,121.9,18.5,121.9,16.6z"/>
	<path opacity="0.48" fill="#FFFFFF" enable-background="new    " d="M125.2,9h1.4v7.6l3.8-4.2h1.6l-2.8,3l3.1,5.4h-1.5l-2.5-4.4
		l-1.7,1.8v2.6h-1.4C125.2,20.8,125.2,9,125.2,9z"/>
	<path opacity="0.48" fill="#FFFFFF" enable-background="new    " d="M133.8,18.5v-6.1h1.4v5.8c0,1.1,0.5,1.6,1.6,1.6
		c1,0,1.9-0.5,2.7-1.4v-6.1h1.4v8.5h-1.4v-1.3c-0.7,0.7-1.8,1.4-3.2,1.4C134.7,21,133.8,20.1,133.8,18.5z"/>
</g>
</svg>
