<?xml version="1.0" encoding="utf-8"?>
<!-- Generator: Adobe Illustrator 17.1.0, SVG Export Plug-In . SVG Version: 6.00 Build 0)  -->
<!DOCTYPE svg PUBLIC "-//W3C//DTD SVG 1.1//EN" "http://www.w3.org/Graphics/SVG/1.1/DTD/svg11.dtd">
<svg version="1.1" id="Layer_1" xmlns="http://www.w3.org/2000/svg" xmlns:xlink="http://www.w3.org/1999/xlink" x="0px" y="0px"
	 viewBox="0 0 140 32" enable-background="new 0 0 140 32" xml:space="preserve">
<g>
	<linearGradient id="SVGID_1_" gradientUnits="userSpaceOnUse" x1="70" y1="32" x2="70" y2="-2.964043e-09">
		<stop  offset="0" style="stop-color:#483F84"/>
		<stop  offset="1" style="stop-color:#5C3D86"/>
	</linearGradient>
	<path fill="url(#SVGID_1_)" d="M140,28c0,2.2-1.8,4-4,4H4c-2.2,0-4-1.8-4-4V4c0-2.2,1.8-4,4-4h132c2.2,0,4,1.8,4,4V28z"/>
</g>
<text transform="matrix(1 0 0 1 11.2468 20.8333)"><tspan x="0" y="0" fill="#FFFFFF" font-family="'BentonSans-Medium'" font-size="14">Deploy </tspan><tspan x="50" y="0" opacity="0.48" fill="#FFFFFF" font-family="'BentonSans'" font-size="14">on Heroku</tspan></text>
<g>
	<linearGradient id="SVGID_2_" gradientUnits="userSpaceOnUse" x1="74" y1="107" x2="74" y2="75">
		<stop  offset="0" style="stop-color:#483F84"/>
		<stop  offset="1" style="stop-color:#5C3D86"/>
	</linearGradient>
	<path fill="url(#SVGID_2_)" d="M149,103c0,2.2-1.8,4-4,4H3c-2.2,0-4-1.8-4-4V79c0-2.2,1.8-4,4-4h142c2.2,0,4,1.8,4,4V103z"/>
</g>
<g>
	<path fill="#FFFFFF" d="M8.4,84h3.4c3.7,0,6.1,1.7,6.1,5.9c0,4.2-2.5,6-6.1,6H8.4V84z M12,94c2.7,0,4-1.2,4-4.2c0-2.8-1.3-4-4-4
		h-1.5V94H12z"/>
	<path fill="#FFFFFF" d="M19.3,91.6c0-3.2,2.3-4.4,4-4.4c1.9,0,3.7,1.1,3.7,4.6v0.5h-5.8c0.1,1.5,1,2.2,2.3,2.2c1.1,0,1.7-0.4,2.4-1
		l1,1c-0.9,1-2,1.5-3.6,1.5C21.3,96,19.3,94.7,19.3,91.6z M25.3,90.8c-0.1-1.3-0.8-2-1.9-2c-1,0-1.8,0.5-2,2H25.3z"/>
	<path fill="#FFFFFF" d="M28.8,87.3h2v1.1c0.6-0.7,1.4-1.3,2.7-1.3c1.9,0,3.4,1.5,3.4,4.4S35.4,96,33.2,96c-0.9,0-1.8-0.4-2.4-1.1
		V99h-2V87.3z M34.9,91.6c0-1.8-0.8-2.7-2-2.7c-0.8,0-1.6,0.5-2.1,1.1v3.4c0.5,0.7,1.3,1.1,2,1.1C34.3,94.4,34.9,93.5,34.9,91.6z"/>
	<path fill="#FFFFFF" d="M38.7,84h2v11.8h-2V84z"/>
	<path fill="#FFFFFF" d="M42.5,91.6c0-3.1,2.1-4.4,4.1-4.4c2.1,0,4.1,1.3,4.1,4.4c0,3.1-2.1,4.4-4.1,4.4
		C44.6,96,42.5,94.7,42.5,91.6z M48.8,91.6c0-1.6-0.7-2.7-2.2-2.7c-1.4,0-2.2,1-2.2,2.7c0,1.6,0.7,2.8,2.2,2.8
		C48.1,94.4,48.8,93.3,48.8,91.6z"/>
	<path fill="#FFFFFF" d="M51.4,98.9l0.4-1.6c0.2,0.1,0.8,0.2,1.4,0.2c0.7,0,1.1-0.3,1.3-1l0.2-0.6l-3.3-8.5h2l2.2,6.2h0l2.2-6.2h2
		l-3.6,9.4c-0.6,1.5-1.3,2.4-3,2.4C52.4,99.1,51.8,99,51.4,98.9z"/>
	<path opacity="0.48" fill="#FFFFFF" d="M64.9,91.6c0-2.9,1.9-4.4,3.9-4.4c2.1,0,3.9,1.5,3.9,4.4c0,2.9-1.9,4.4-3.9,4.4
		S64.9,94.5,64.9,91.6z M71.4,91.6c0-1.8-0.8-3.2-2.5-3.2c-1.6,0-2.5,1.3-2.5,3.2c0,1.8,0.8,3.2,2.5,3.2
		C70.4,94.8,71.4,93.5,71.4,91.6z"/>
	<path opacity="0.48" fill="#FFFFFF" d="M74.7,87.4h1.4v1.3c0.7-0.7,1.8-1.4,3.2-1.4c1.6,0,2.5,0.9,2.5,2.5v6.1h-1.4V90
		c0-1.1-0.5-1.6-1.6-1.6c-1,0-1.9,0.5-2.7,1.4v6.1h-1.4V87.4z"/>
	<path opacity="0.48" fill="#FFFFFF" d="M88.1,84h1.4v5h6.1v-5H97v11.8h-1.4v-5.6h-6.1v5.6h-1.4V84z"/>
	<path opacity="0.48" fill="#FFFFFF" d="M99.2,91.6c0-3.1,2-4.4,3.8-4.4c2,0,3.5,1.4,3.5,4.5V92h-6c0,1.9,1.2,2.9,2.5,2.9
		c1.2,0,1.9-0.5,2.5-1.4l0.8,0.7c-0.8,1.1-1.9,1.8-3.4,1.8C101,96,99.2,94.6,99.2,91.6z M105.2,90.9c-0.1-1.5-0.8-2.5-2.2-2.5
		c-1.1,0-2.2,0.8-2.4,2.5H105.2z"/>
	<path opacity="0.48" fill="#FFFFFF" d="M108.5,87.4h1.4V89h0c0.6-1,1.6-1.7,3.3-1.7h0.2l-0.1,1.3c0,0-0.4,0-0.4,0
		c-1.3,0-2.4,0.7-3,1.9v5.5h-1.4V87.4z"/>
	<path opacity="0.48" fill="#FFFFFF" d="M114.4,91.6c0-2.9,1.9-4.4,3.9-4.4c2.1,0,3.9,1.5,3.9,4.4c0,2.9-1.9,4.4-3.9,4.4
		S114.4,94.5,114.4,91.6z M120.9,91.6c0-1.8-0.8-3.2-2.5-3.2c-1.6,0-2.5,1.3-2.5,3.2c0,1.8,0.8,3.2,2.5,3.2
		C120,94.8,120.9,93.5,120.9,91.6z"/>
	<path opacity="0.48" fill="#FFFFFF" d="M124.2,84h1.4v7.6l3.8-4.2h1.6l-2.8,3l3.1,5.4h-1.5l-2.5-4.4l-1.7,1.8v2.6h-1.4V84z"/>
	<path opacity="0.48" fill="#FFFFFF" d="M132.8,93.5v-6.1h1.4v5.8c0,1.1,0.5,1.6,1.6,1.6c1,0,1.9-0.5,2.7-1.4v-6.1h1.4v8.5h-1.4
		v-1.3c-0.7,0.7-1.8,1.4-3.2,1.4C133.7,96,132.8,95.1,132.8,93.5z"/>
</g>
</svg>
